<?xml version="1.0" encoding="UTF-8" standalone="no"?>
<!-- Created with Inkscape (http://www.inkscape.org/) -->

<svg
   xmlns:dc="http://purl.org/dc/elements/1.1/"
   xmlns:cc="http://creativecommons.org/ns#"
   xmlns:rdf="http://www.w3.org/1999/02/22-rdf-syntax-ns#"
   xmlns:svg="http://www.w3.org/2000/svg"
   xmlns="http://www.w3.org/2000/svg"
   xmlns:sodipodi="http://sodipodi.sourceforge.net/DTD/sodipodi-0.dtd"
   xmlns:inkscape="http://www.inkscape.org/namespaces/inkscape"
   id="svg2"
   version="1.1"
   inkscape:version="0.48.2 r9819"
   width="804"
   height="125.08659"
   sodipodi:docname="Carl Sagan Signature.svg">
  <metadata
     id="metadata8">
    <rdf:RDF>
      <cc:Work
         rdf:about="">
        <dc:format>image/svg+xml</dc:format>
        <dc:type
           rdf:resource="http://purl.org/dc/dcmitype/StillImage" />
        <dc:title />
      </cc:Work>
    </rdf:RDF>
  </metadata>
  <defs
     id="defs6" />
  <sodipodi:namedview
     pagecolor="#ffffff"
     bordercolor="#666666"
     borderopacity="1"
     objecttolerance="10"
     gridtolerance="10"
     guidetolerance="10"
     inkscape:pageopacity="0"
     inkscape:pageshadow="2"
     inkscape:window-width="1366"
     inkscape:window-height="706"
     id="namedview4"
     showgrid="false"
     fit-margin-top="2"
     fit-margin-left="2"
     fit-margin-right="2"
     fit-margin-bottom="2"
     inkscape:zoom="0.60811185"
     inkscape:cx="413.2774"
     inkscape:cy="-82.726177"
     inkscape:window-x="-8"
     inkscape:window-y="-8"
     inkscape:window-maximized="1"
     inkscape:current-layer="svg2" />
  <path
     style="fill:#0b0565;fill-opacity:1"
     d="M 530.73375,121.0651 C 491.76516,113.72509 458.59724,95.229432 447.72529,74.776516 l -4.31948,-8.126011 4.6918,-3.799228 c 2.5805,-2.089575 11.44108,-5.439626 19.69009,-7.44456 18.73851,-4.554389 65.41877,-12.366154 74.21419,-12.419444 3.62022,-0.02193 8.06324,-1.057527 9.87333,-2.301304 2.34164,-1.608981 -0.82335,-1.915208 -10.97038,-1.061453 -7.84382,0.659982 -21.66652,1.651617 -30.71707,2.203668 -64.26065,3.919563 -61.48391,3.515263 -60.16744,8.760569 2.19618,8.750201 -3.55621,10.776991 -26.01138,9.164803 -20.64972,-1.482566 -33.37419,-4.673932 -39.75715,-9.971294 -3.03529,-2.519071 -8.04387,-2.093098 -33.05098,2.810927 -16.2105,3.178964 -30.019,5.779931 -30.68567,5.779931 -2.8003,0 -0.90769,-4.396647 2.73085,-6.343926 4.02365,-2.153401 41.23406,-10.043347 80.37972,-17.043373 14.81225,-2.648733 23.59605,-5.404535 27.42598,-8.604552 12.35174,-10.320214 29.97608,-16.5789542 55.23319,-19.6143692 10.14131,-1.218786 12.535,-0.864027 13.64243,2.021865 2.03129,5.2934932 -5.13754,8.8353042 -37.7465,18.6488192 -16.14652,4.859221 -29.88689,9.364581 -30.53422,10.011901 -2.12897,2.128955 59.19062,0.877917 94.99676,-1.938137 19.30786,-1.518522 51.87411,-2.959021 72.36951,-3.201114 20.49532,-0.242093 39.40954,-0.978622 42.03158,-1.636717 2.62207,-0.65809 6.86153,-0.0757 9.421,1.294024 2.5595,1.369782 17.21464,4.345719 32.56699,6.613146 41.38677,6.112557 53.64821,8.209524 83.86232,14.342298 C 800.71035,59.786759 802,60.183516 802,63.722898 c 0,2.241445 -2.25398,2.409662 -10.42185,0.777787 -5.73204,-1.145214 -15.8522,-2.889051 -22.48927,-3.875192 -6.6371,-0.986141 -21.94082,-3.788374 -34.0082,-6.227182 -22.703,-4.588245 -86.3692,-12.411938 -87.97074,-10.810391 -0.49962,0.499623 0.7391,4.210982 2.75276,8.247463 6.04982,12.127101 6.17594,25.9142 0.34092,37.254811 -4.19299,8.149189 -7.57056,11.116886 -19.3416,16.994436 -28.61045,14.28583 -70.52404,20.55664 -100.12827,14.98047 z m 65.39676,-9.81805 C 638.44018,100.3479 650.91909,86.629002 643.07319,59.640057 639.11512,46.024682 632.13183,39.786395 619.89164,38.931631 606.39316,37.988988 513.62141,51.329489 493.61797,57.089681 c -5.97087,1.71938 -16.59618,4.275585 -23.61177,5.680458 -7.06217,1.414206 -13.29154,3.950917 -13.95631,5.68327 -2.03877,5.312913 9.67948,17.907486 25.13389,27.013547 35.68729,21.027654 74.10347,26.301494 114.94673,15.780094 z M 439.97734,52.005526 c 0,-3.451826 -11.59806,-5.722184 -25.78045,-5.046615 -14.55718,0.693431 -18.50895,3.958776 -6.58222,5.43887 14.20336,1.762616 32.36267,1.542517 32.36267,-0.392255 z M 565.0397,38.831841 c 0,-1.09377 -1.97469,-1.472291 -4.38816,-0.841142 -2.41347,0.631127 -4.38816,1.526048 -4.38816,1.98867 0,0.462616 1.97469,0.841142 4.38816,0.841142 2.41347,0 4.38816,-0.894899 4.38816,-1.98867 z M 475.08257,16.355633 c 2.59518,-1.635117 2.36319,-1.869071 -1.09705,-1.106368 -14.90953,3.286246 -25.23191,6.634958 -25.23191,8.185514 0,1.940921 20.9551,-3.693335 26.32896,-7.079146 z M 7.0879431,65.981434 C 2.2290281,63.23356 1.2647863,61.505527 2.4705434,57.706518 4.602541,50.989189 7.8968334,49.020315 31.73428,40.216698 58.248644,30.424445 123.3009,15.0475 172.29996,6.9900158 c 33.12443,-5.447037 43.86595,-6.21310106 47.28864,-3.372539 4.51982,3.751126 3.92857,8.1224102 -1.49101,11.0228672 -6.60119,3.53286 -47.73144,6.057693 -54.97518,3.374711 -16.45969,-6.096462 -142.380982,26.009217 -149.932425,38.227713 -4.43412,7.174539 10.238771,7.637739 64.28487,2.029376 18.788145,-1.949648 26.232035,-1.955504 30.894405,-0.02431 4.59103,1.901679 12.19268,1.943568 30.0998,0.16585 34.5034,-3.425281 42.3853,-4.395043 54.6746,-6.72702 6.03374,-1.144933 21.83108,-4.048553 35.10524,-6.452493 23.13725,-4.190128 47.7492,-9.790792 85.56901,-19.471964 26.96098,-6.901509 36.99445,-8.162052 35.77183,-4.494146 -0.55781,1.673378 -9.32834,5.653672 -19.49007,8.845067 -29.01022,9.111014 -41.7249,14.768105 -54.03543,24.04175 -6.28365,4.73351 -11.96082,8.606384 -12.61596,8.606384 -3.8602,0 0.0274,-7.172455 7.59144,-14.00619 4.83044,-4.364007 7.92514,-7.934561 6.87709,-7.934561 -1.04804,0 -13.14571,2.554013 -26.88375,5.675615 -35.47013,8.059631 -79.6604,15.399391 -112.13083,18.624331 -22.96642,2.281008 -29.47404,2.256888 -36.72491,-0.136121 -7.057456,-2.329172 -13.077741,-2.413212 -30.230529,-0.422 -41.711442,4.842146 -58.169321,5.202238 -64.8588479,1.41909 z M 213.98741,9.8795268 c 4.1408,-2.310933 -18.37395,-2.614814 -28.79727,-0.388657 l -7.40502,1.5814892 7.67927,1.27702 c 8.89461,1.479115 23.75244,0.192639 28.52302,-2.4698522 z"
     id="path2987"
     inkscape:connector-curvature="0" />
</svg>
